<svg version="1.1" xmlns="http://www.w3.org/2000/svg" width="842" height="596"><filter id="lightMe1"><feDiffuseLighting in="SourceGraphic" result="light" lighting-color="white"><fePointLight x="220" y="80" z="220"/></feDiffuseLighting><feComposite in="SourceGraphic" in2="light" operator="arithmetic" k1="1" k2="0" k3="0" k4="0"/></filter><rect fill="#000000" x="0" y="0" width="842" height="596" filter="url(#lightMe1)"/><path transform="matrix(2 0 0 2 690 20)" d="M55.99 3.08c-.43.44-.68 1.06-.74 1.86h4.58c-.02-.42-.09-.79-.22-1.11-.13-.32-.3-.59-.51-.8-.21-.21-.46-.36-.73-.47-.27-.1-.55-.15-.84-.15-.6 0-1.11.22-1.54.67zm2.96 6.3c.37-.23.61-.54.72-.95h3.06c-.35 1.19-.96 2.1-1.83 2.74-.86.64-1.9.96-3.1.96-3.74 0-5.61-2.09-5.61-6.28 0-.89.12-1.69.37-2.41.24-.72.59-1.33 1.06-1.85.46-.51 1.03-.91 1.7-1.18.66-.27 1.43-.41 2.3-.41 1.73 0 3.04.57 3.93 1.71.89 1.14 1.34 2.86 1.34 5.15h-7.73c.04.88.29 1.57.74 2.09.45.51 1.03.77 1.76.77.49 0 .92-.11 1.29-.34zm-12.58 4.64c-.21.21-.52.39-.92.52-.39.13-.97.27-1.73.42-1.18.23-1.98.54-2.43.9-.43.37-.66.9-.66 1.59 0 1.18.66 1.78 1.99 1.78.52 0 1.01-.09 1.46-.28.45-.18.84-.43 1.17-.74.32-.31.59-.68.79-1.1.2-.42.3-.87.3-1.34zM49 7.11c.51.53.88 1.19 1.12 1.97.23.79.34 1.68.34 2.67v10.07h-3.81c-.12-.41-.21-.89-.25-1.43-.48.56-1.13 1.01-1.92 1.35-.8.33-1.72.5-2.77.5-1.79 0-3.1-.41-3.93-1.22-.83-.81-1.24-1.86-1.24-3.15 0-1.14.18-2.06.53-2.74.36-.68.85-1.21 1.49-1.6.63-.39 1.38-.67 2.25-.85.87-.19 1.82-.36 2.85-.51 1.03-.15 1.72-.35 2.08-.59.35-.25.53-.66.53-1.22 0-.52-.23-.92-.71-1.21-.47-.29-1.1-.44-1.9-.44-.95 0-1.62.22-2.03.65-.41.43-.67 1-.77 1.71h-3.82c.02-.82.16-1.57.4-2.26.24-.69.63-1.28 1.16-1.78.54-.5 1.24-.88 2.1-1.15.86-.27 1.91-.4 3.15-.4 1.21 0 2.25.14 3.1.42.85.28 1.53.68 2.05 1.21zM31.66 21.82h-4.29L21.83 5.9h4.57l3.24 10.51L32.92 5.9h4.31zM16.73 5.9h4.09v15.92h-4.09zm0-5.83h4.09v3.92h-4.09zM7.65 18.81c-1.03 0-1.87-.45-2.52-1.35-.65-.89-.97-2.05-.97-3.47 0-3.28 1.17-4.92 3.53-4.92 2.28 0 3.43 1.72 3.43 5.17 0 1.36-.33 2.46-.99 3.3-.66.85-1.49 1.27-2.48 1.27zm3.31-10.84c-1.15-1.66-2.69-2.49-4.6-2.49-1 0-1.9.2-2.69.59-.79.4-1.46.97-2 1.7-.55.74-.96 1.6-1.24 2.61-.29 1-.43 2.11-.43 3.31 0 1.34.17 2.54.5 3.6.34 1.05.8 1.95 1.39 2.68.59.74 1.29 1.3 2.11 1.68.82.39 1.72.59 2.71.59 1.93 0 3.37-.79 4.31-2.37l.04 1.95h3.93V.07h-4.03zM52 15.97h10.63V14H52z" fill="#fff"/><g class="star" id="star_0" transform="matrix(1 0 0 1 -14 -20)"><g><path id="angle_39.179691573078" transform="translate(0 0)" d="M 449.8204873351168 130.5810559022927 L 394.38695897230485 97.35509198719495 M 449.8204873351168 130.5810559022927 L 464.290354504484 67.59325002735432 " fill="none" stroke="#ffffff"/><path id="angle_39.179691573078" transform="translate(-5.063386984236714 -11.892675983200098)" d="M 449.8204873351168 130.5810559022927 L 394.38695897230485 97.35509198719495 M 449.8204873351168 130.5810559022927 L 464.290354504484 67.59325002735432 " fill="none" stroke="#ffffff"/><path id="angle_39.179691573078" transform="translate(-10.126773968473428 -23.785351966400196)" d="M 449.8204873351168 130.5810559022927 L 394.38695897230485 97.35509198719495 M 449.8204873351168 130.5810559022927 L 464.290354504484 67.59325002735432 " fill="none" stroke="#ffffff"/><path id="angle_39.179691573078" transform="translate(-15.19016095271014 -35.67802794960029)" d="M 449.8204873351168 130.5810559022927 L 394.38695897230485 97.35509198719495 M 449.8204873351168 130.5810559022927 L 464.290354504484 67.59325002735432 " fill="none" stroke="#ffffff"/><path id="angle_39.179691573078" transform="translate(-20.253547936946855 -47.57070393280039)" d="M 449.8204873351168 130.5810559022927 L 394.38695897230485 97.35509198719495 M 449.8204873351168 130.5810559022927 L 464.290354504484 67.59325002735432 " fill="none" stroke="#ffffff"/><path id="angle_39.179691573078" transform="translate(-25.316934921183567 -59.463379916000484)" d="M 449.8204873351168 130.5810559022927 L 394.38695897230485 97.35509198719495 M 449.8204873351168 130.5810559022927 L 464.290354504484 67.59325002735432 " fill="none" stroke="#ffffff"/><path id="angle_39.179691573078" transform="translate(-30.38032190542028 -71.35605589920058)" d="M 449.8204873351168 130.5810559022927 L 394.38695897230485 97.35509198719495 M 449.8204873351168 130.5810559022927 L 464.290354504484 67.59325002735432 " fill="none" stroke="#ffffff"/><path id="angle_39.179691573078" transform="translate(-35.443708889656996 -83.24873188240066)" d="M 449.8204873351168 130.5810559022927 L 394.38695897230485 97.35509198719495 M 449.8204873351168 130.5810559022927 L 464.290354504484 67.59325002735432 " fill="none" stroke="#ffffff"/><path id="angle_39.179691573078" transform="translate(-40.50709587389371 -95.14140786560078)" d="M 449.8204873351168 130.5810559022927 L 394.38695897230485 97.35509198719495 M 449.8204873351168 130.5810559022927 L 464.290354504484 67.59325002735432 " fill="none" stroke="#ffffff"/></g><g><path id="angle_40.179691573078" transform="translate(0 0)" d="M 449.8204873351168 130.5810559022927 L 464.290354504484 67.59325002735432 M 449.8204873351168 130.5810559022927 L 514.1968854212937 124.87841490989858 " fill="none" stroke="#ffffff"/><path id="angle_40.179691573078" transform="translate(9.745934362783265 -8.49060617328601)" d="M 449.8204873351168 130.5810559022927 L 464.290354504484 67.59325002735432 M 449.8204873351168 130.5810559022927 L 514.1968854212937 124.87841490989858 " fill="none" stroke="#ffffff"/><path id="angle_40.179691573078" transform="translate(19.49186872556653 -16.98121234657202)" d="M 449.8204873351168 130.5810559022927 L 464.290354504484 67.59325002735432 M 449.8204873351168 130.5810559022927 L 514.1968854212937 124.87841490989858 " fill="none" stroke="#ffffff"/><path id="angle_40.179691573078" transform="translate(29.237803088349796 -25.471818519858026)" d="M 449.8204873351168 130.5810559022927 L 464.290354504484 67.59325002735432 M 449.8204873351168 130.5810559022927 L 514.1968854212937 124.87841490989858 " fill="none" stroke="#ffffff"/><path id="angle_40.179691573078" transform="translate(38.98373745113306 -33.96242469314404)" d="M 449.8204873351168 130.5810559022927 L 464.290354504484 67.59325002735432 M 449.8204873351168 130.5810559022927 L 514.1968854212937 124.87841490989858 " fill="none" stroke="#ffffff"/><path id="angle_40.179691573078" transform="translate(48.72967181391632 -42.453030866430055)" d="M 449.8204873351168 130.5810559022927 L 464.290354504484 67.59325002735432 M 449.8204873351168 130.5810559022927 L 514.1968854212937 124.87841490989858 " fill="none" stroke="#ffffff"/><path id="angle_40.179691573078" transform="translate(58.47560617669959 -50.94363703971605)" d="M 449.8204873351168 130.5810559022927 L 464.290354504484 67.59325002735432 M 449.8204873351168 130.5810559022927 L 514.1968854212937 124.87841490989858 " fill="none" stroke="#ffffff"/><path id="angle_40.179691573078" transform="translate(68.22154053948285 -59.43424321300206)" d="M 449.8204873351168 130.5810559022927 L 464.290354504484 67.59325002735432 M 449.8204873351168 130.5810559022927 L 514.1968854212937 124.87841490989858 " fill="none" stroke="#ffffff"/><path id="angle_40.179691573078" transform="translate(77.96747490226612 -67.92484938628807)" d="M 449.8204873351168 130.5810559022927 L 464.290354504484 67.59325002735432 M 449.8204873351168 130.5810559022927 L 514.1968854212937 124.87841490989858 " fill="none" stroke="#ffffff"/></g><g><path id="angle_41.179691573078" transform="translate(0 0)" d="M 449.8204873351168 130.5810559022927 L 514.1968854212937 124.87841490989858 M 449.8204873351168 130.5810559022927 L 475.1374222563006 190.0444358182931 " fill="none" stroke="#ffffff"/><path id="angle_41.179691573078" transform="translate(11.086705672562417 6.645192783019505)" d="M 449.8204873351168 130.5810559022927 L 514.1968854212937 124.87841490989858 M 449.8204873351168 130.5810559022927 L 475.1374222563006 190.0444358182931 " fill="none" stroke="#ffffff"/><path id="angle_41.179691573078" transform="translate(22.173411345124833 13.29038556603901)" d="M 449.8204873351168 130.5810559022927 L 514.1968854212937 124.87841490989858 M 449.8204873351168 130.5810559022927 L 475.1374222563006 190.0444358182931 " fill="none" stroke="#ffffff"/><path id="angle_41.179691573078" transform="translate(33.26011701768724 19.935578349058517)" d="M 449.8204873351168 130.5810559022927 L 514.1968854212937 124.87841490989858 M 449.8204873351168 130.5810559022927 L 475.1374222563006 190.0444358182931 " fill="none" stroke="#ffffff"/><path id="angle_41.179691573078" transform="translate(44.34682269024967 26.58077113207802)" d="M 449.8204873351168 130.5810559022927 L 514.1968854212937 124.87841490989858 M 449.8204873351168 130.5810559022927 L 475.1374222563006 190.0444358182931 " fill="none" stroke="#ffffff"/><path id="angle_41.179691573078" transform="translate(55.433528362812076 33.22596391509753)" d="M 449.8204873351168 130.5810559022927 L 514.1968854212937 124.87841490989858 M 449.8204873351168 130.5810559022927 L 475.1374222563006 190.0444358182931 " fill="none" stroke="#ffffff"/><path id="angle_41.179691573078" transform="translate(66.52023403537449 39.871156698117034)" d="M 449.8204873351168 130.5810559022927 L 514.1968854212937 124.87841490989858 M 449.8204873351168 130.5810559022927 L 475.1374222563006 190.0444358182931 " fill="none" stroke="#ffffff"/><path id="angle_41.179691573078" transform="translate(77.6069397079369 46.51634948113654)" d="M 449.8204873351168 130.5810559022927 L 514.1968854212937 124.87841490989858 M 449.8204873351168 130.5810559022927 L 475.1374222563006 190.0444358182931 " fill="none" stroke="#ffffff"/><path id="angle_41.179691573078" transform="translate(88.69364538049933 53.16154226415604)" d="M 449.8204873351168 130.5810559022927 L 514.1968854212937 124.87841490989858 M 449.8204873351168 130.5810559022927 L 475.1374222563006 190.0444358182931 " fill="none" stroke="#ffffff"/></g><g><path id="angle_42.179691573078" transform="translate(0 0)" d="M 449.8204873351168 130.5810559022927 L 475.1374222563006 190.0444358182931 M 449.8204873351168 130.5810559022927 L 401.0908155212006 173.03408676872291 " fill="none" stroke="#ffffff"/><path id="angle_42.179691573078" transform="translate(-2.893973433873398 12.597561174987685)" d="M 449.8204873351168 130.5810559022927 L 475.1374222563006 190.0444358182931 M 449.8204873351168 130.5810559022927 L 401.0908155212006 173.03408676872291 " fill="none" stroke="#ffffff"/><path id="angle_42.179691573078" transform="translate(-5.787946867746796 25.19512234997537)" d="M 449.8204873351168 130.5810559022927 L 475.1374222563006 190.0444358182931 M 449.8204873351168 130.5810559022927 L 401.0908155212006 173.03408676872291 " fill="none" stroke="#ffffff"/><path id="angle_42.179691573078" transform="translate(-8.681920301620195 37.79268352496306)" d="M 449.8204873351168 130.5810559022927 L 475.1374222563006 190.0444358182931 M 449.8204873351168 130.5810559022927 L 401.0908155212006 173.03408676872291 " fill="none" stroke="#ffffff"/><path id="angle_42.179691573078" transform="translate(-11.575893735493592 50.39024469995074)" d="M 449.8204873351168 130.5810559022927 L 475.1374222563006 190.0444358182931 M 449.8204873351168 130.5810559022927 L 401.0908155212006 173.03408676872291 " fill="none" stroke="#ffffff"/><path id="angle_42.179691573078" transform="translate(-14.469867169366992 62.98780587493844)" d="M 449.8204873351168 130.5810559022927 L 475.1374222563006 190.0444358182931 M 449.8204873351168 130.5810559022927 L 401.0908155212006 173.03408676872291 " fill="none" stroke="#ffffff"/><path id="angle_42.179691573078" transform="translate(-17.36384060324039 75.58536704992612)" d="M 449.8204873351168 130.5810559022927 L 475.1374222563006 190.0444358182931 M 449.8204873351168 130.5810559022927 L 401.0908155212006 173.03408676872291 " fill="none" stroke="#ffffff"/><path id="angle_42.179691573078" transform="translate(-20.25781403711379 88.18292822491384)" d="M 449.8204873351168 130.5810559022927 L 475.1374222563006 190.0444358182931 M 449.8204873351168 130.5810559022927 L 401.0908155212006 173.03408676872291 " fill="none" stroke="#ffffff"/><path id="angle_42.179691573078" transform="translate(-23.151787470987184 100.78048939990148)" d="M 449.8204873351168 130.5810559022927 L 475.1374222563006 190.0444358182931 M 449.8204873351168 130.5810559022927 L 401.0908155212006 173.03408676872291 " fill="none" stroke="#ffffff"/></g><g><path id="angle_43.179691573078" transform="translate(0 0)" d="M 449.8204873351168 130.5810559022927 L 401.0908155212006 173.03408676872291 M 449.8204873351168 130.5810559022927 L 394.3869589723051 97.35509198719458 " fill="none" stroke="#ffffff"/><path id="angle_43.179691573078" transform="translate(-12.875279617235373 1.14052819847887)" d="M 449.8204873351168 130.5810559022927 L 401.0908155212006 173.03408676872291 M 449.8204873351168 130.5810559022927 L 394.3869589723051 97.35509198719458 " fill="none" stroke="#ffffff"/><path id="angle_43.179691573078" transform="translate(-25.750559234470746 2.28105639695774)" d="M 449.8204873351168 130.5810559022927 L 401.0908155212006 173.03408676872291 M 449.8204873351168 130.5810559022927 L 394.3869589723051 97.35509198719458 " fill="none" stroke="#ffffff"/><path id="angle_43.179691573078" transform="translate(-38.62583885170613 3.4215845954366104)" d="M 449.8204873351168 130.5810559022927 L 401.0908155212006 173.03408676872291 M 449.8204873351168 130.5810559022927 L 394.3869589723051 97.35509198719458 " fill="none" stroke="#ffffff"/><path id="angle_43.179691573078" transform="translate(-51.50111846894149 4.56211279391548)" d="M 449.8204873351168 130.5810559022927 L 401.0908155212006 173.03408676872291 M 449.8204873351168 130.5810559022927 L 394.3869589723051 97.35509198719458 " fill="none" stroke="#ffffff"/><path id="angle_43.179691573078" transform="translate(-64.37639808617686 5.702640992394351)" d="M 449.8204873351168 130.5810559022927 L 401.0908155212006 173.03408676872291 M 449.8204873351168 130.5810559022927 L 394.3869589723051 97.35509198719458 " fill="none" stroke="#ffffff"/><path id="angle_43.179691573078" transform="translate(-77.25167770341226 6.843169190873221)" d="M 449.8204873351168 130.5810559022927 L 401.0908155212006 173.03408676872291 M 449.8204873351168 130.5810559022927 L 394.3869589723051 97.35509198719458 " fill="none" stroke="#ffffff"/><path id="angle_43.179691573078" transform="translate(-90.12695732064762 7.98369738935209)" d="M 449.8204873351168 130.5810559022927 L 401.0908155212006 173.03408676872291 M 449.8204873351168 130.5810559022927 L 394.3869589723051 97.35509198719458 " fill="none" stroke="#ffffff"/><path id="angle_43.179691573078" transform="translate(-103.00223693788298 9.12422558783096)" d="M 449.8204873351168 130.5810559022927 L 401.0908155212006 173.03408676872291 M 449.8204873351168 130.5810559022927 L 394.3869589723051 97.35509198719458 " fill="none" stroke="#ffffff"/></g></g><g class="star" id="star_1" transform="matrix(1 0 0 1 54 -4)"><g><path id="angle_228.7814170623504" transform="translate(0 0)" d="M 700.5530370374728 502.092597116106 L 626.9491137954087 535.0149893432275 M 700.5530370374728 502.092597116106 L 628.9219787979293 465.0735084987019 " fill="none" stroke="#ffffff"/><path id="angle_228.7814170623504" transform="translate(-16.119866807355454 -0.4546989952960592)" d="M 700.5530370374728 502.092597116106 L 626.9491137954087 535.0149893432275 M 700.5530370374728 502.092597116106 L 628.9219787979293 465.0735084987019 " fill="none" stroke="#ffffff"/><path id="angle_228.7814170623504" transform="translate(-32.23973361471091 -0.9093979905921185)" d="M 700.5530370374728 502.092597116106 L 626.9491137954087 535.0149893432275 M 700.5530370374728 502.092597116106 L 628.9219787979293 465.0735084987019 " fill="none" stroke="#ffffff"/><path id="angle_228.7814170623504" transform="translate(-48.35960042206637 -1.3640969858881777)" d="M 700.5530370374728 502.092597116106 L 626.9491137954087 535.0149893432275 M 700.5530370374728 502.092597116106 L 628.9219787979293 465.0735084987019 " fill="none" stroke="#ffffff"/><path id="angle_228.7814170623504" transform="translate(-64.47946722942181 -1.818795981184237)" d="M 700.5530370374728 502.092597116106 L 626.9491137954087 535.0149893432275 M 700.5530370374728 502.092597116106 L 628.9219787979293 465.0735084987019 " fill="none" stroke="#ffffff"/><path id="angle_228.7814170623504" transform="translate(-80.59933403677728 -2.2734949764802965)" d="M 700.5530370374728 502.092597116106 L 626.9491137954087 535.0149893432275 M 700.5530370374728 502.092597116106 L 628.9219787979293 465.0735084987019 " fill="none" stroke="#ffffff"/><path id="angle_228.7814170623504" transform="translate(-96.71920084413274 -2.7281939717763555)" d="M 700.5530370374728 502.092597116106 L 626.9491137954087 535.0149893432275 M 700.5530370374728 502.092597116106 L 628.9219787979293 465.0735084987019 " fill="none" stroke="#ffffff"/><path id="angle_228.7814170623504" transform="translate(-112.83906765148818 -3.182892967072415)" d="M 700.5530370374728 502.092597116106 L 626.9491137954087 535.0149893432275 M 700.5530370374728 502.092597116106 L 628.9219787979293 465.0735084987019 " fill="none" stroke="#ffffff"/><path id="angle_228.7814170623504" transform="translate(-128.95893445884363 -3.637591962368474)" d="M 700.5530370374728 502.092597116106 L 626.9491137954087 535.0149893432275 M 700.5530370374728 502.092597116106 L 628.9219787979293 465.0735084987019 " fill="none" stroke="#ffffff"/></g><g><path id="angle_229.7814170623504" transform="translate(0 0)" d="M 700.5530370374728 502.092597116106 L 628.9219787979293 465.0735084987019 M 700.5530370374728 502.092597116106 L 684.8344916621282 423.00815643487385 " fill="none" stroke="#ffffff"/><path id="angle_229.7814170623504" transform="translate(-9.69507457213828 -12.886519549664337)" d="M 700.5530370374728 502.092597116106 L 628.9219787979293 465.0735084987019 M 700.5530370374728 502.092597116106 L 684.8344916621282 423.00815643487385 " fill="none" stroke="#ffffff"/><path id="angle_229.7814170623504" transform="translate(-19.39014914427656 -25.773039099328674)" d="M 700.5530370374728 502.092597116106 L 628.9219787979293 465.0735084987019 M 700.5530370374728 502.092597116106 L 684.8344916621282 423.00815643487385 " fill="none" stroke="#ffffff"/><path id="angle_229.7814170623504" transform="translate(-29.085223716414838 -38.65955864899301)" d="M 700.5530370374728 502.092597116106 L 628.9219787979293 465.0735084987019 M 700.5530370374728 502.092597116106 L 684.8344916621282 423.00815643487385 " fill="none" stroke="#ffffff"/><path id="angle_229.7814170623504" transform="translate(-38.78029828855312 -51.54607819865735)" d="M 700.5530370374728 502.092597116106 L 628.9219787979293 465.0735084987019 M 700.5530370374728 502.092597116106 L 684.8344916621282 423.00815643487385 " fill="none" stroke="#ffffff"/><path id="angle_229.7814170623504" transform="translate(-48.475372860691394 -64.4325977483217)" d="M 700.5530370374728 502.092597116106 L 628.9219787979293 465.0735084987019 M 700.5530370374728 502.092597116106 L 684.8344916621282 423.00815643487385 " fill="none" stroke="#ffffff"/><path id="angle_229.7814170623504" transform="translate(-58.170447432829675 -77.31911729798603)" d="M 700.5530370374728 502.092597116106 L 628.9219787979293 465.0735084987019 M 700.5530370374728 502.092597116106 L 684.8344916621282 423.00815643487385 " fill="none" stroke="#ffffff"/><path id="angle_229.7814170623504" transform="translate(-67.86552200496796 -90.20563684765037)" d="M 700.5530370374728 502.092597116106 L 628.9219787979293 465.0735084987019 M 700.5530370374728 502.092597116106 L 684.8344916621282 423.00815643487385 " fill="none" stroke="#ffffff"/><path id="angle_229.7814170623504" transform="translate(-77.56059657710624 -103.0921563973147)" d="M 700.5530370374728 502.092597116106 L 628.9219787979293 465.0735084987019 M 700.5530370374728 502.092597116106 L 684.8344916621282 423.00815643487385 " fill="none" stroke="#ffffff"/></g><g><path id="angle_230.7814170623504" transform="translate(0 0)" d="M 700.5530370374728 502.092597116106 L 684.8344916621282 423.00815643487385 M 700.5530370374728 502.092597116106 L 752.5833897938556 440.4950012326103 " fill="none" stroke="#ffffff"/><path id="angle_230.7814170623504" transform="translate(4.030306559379508 -15.614528046041801)" d="M 700.5530370374728 502.092597116106 L 684.8344916621282 423.00815643487385 M 700.5530370374728 502.092597116106 L 752.5833897938556 440.4950012326103 " fill="none" stroke="#ffffff"/><path id="angle_230.7814170623504" transform="translate(8.060613118759017 -31.229056092083603)" d="M 700.5530370374728 502.092597116106 L 684.8344916621282 423.00815643487385 M 700.5530370374728 502.092597116106 L 752.5833897938556 440.4950012326103 " fill="none" stroke="#ffffff"/><path id="angle_230.7814170623504" transform="translate(12.090919678138528 -46.8435841381254)" d="M 700.5530370374728 502.092597116106 L 684.8344916621282 423.00815643487385 M 700.5530370374728 502.092597116106 L 752.5833897938556 440.4950012326103 " fill="none" stroke="#ffffff"/><path id="angle_230.7814170623504" transform="translate(16.121226237518034 -62.458112184167206)" d="M 700.5530370374728 502.092597116106 L 684.8344916621282 423.00815643487385 M 700.5530370374728 502.092597116106 L 752.5833897938556 440.4950012326103 " fill="none" stroke="#ffffff"/><path id="angle_230.7814170623504" transform="translate(20.15153279689754 -78.07264023020899)" d="M 700.5530370374728 502.092597116106 L 684.8344916621282 423.00815643487385 M 700.5530370374728 502.092597116106 L 752.5833897938556 440.4950012326103 " fill="none" stroke="#ffffff"/><path id="angle_230.7814170623504" transform="translate(24.181839356277056 -93.6871682762508)" d="M 700.5530370374728 502.092597116106 L 684.8344916621282 423.00815643487385 M 700.5530370374728 502.092597116106 L 752.5833897938556 440.4950012326103 " fill="none" stroke="#ffffff"/><path id="angle_230.7814170623504" transform="translate(28.21214591565656 -109.30169632229259)" d="M 700.5530370374728 502.092597116106 L 684.8344916621282 423.00815643487385 M 700.5530370374728 502.092597116106 L 752.5833897938556 440.4950012326103 " fill="none" stroke="#ffffff"/><path id="angle_230.7814170623504" transform="translate(32.24245247503607 -124.91622436833441)" d="M 700.5530370374728 502.092597116106 L 684.8344916621282 423.00815643487385 M 700.5530370374728 502.092597116106 L 752.5833897938556 440.4950012326103 " fill="none" stroke="#ffffff"/></g><g><path id="angle_231.7814170623504" transform="translate(0 0)" d="M 700.5530370374728 502.092597116106 L 752.5833897938556 440.4950012326103 M 700.5530370374728 502.092597116106 L 781.1523710742501 504.3660920925854 " fill="none" stroke="#ffffff"/><path id="angle_231.7814170623504" transform="translate(14.720784648412739 -6.584478445424457)" d="M 700.5530370374728 502.092597116106 L 752.5833897938556 440.4950012326103 M 700.5530370374728 502.092597116106 L 781.1523710742501 504.3660920925854 " fill="none" stroke="#ffffff"/><path id="angle_231.7814170623504" transform="translate(29.441569296825477 -13.168956890848914)" d="M 700.5530370374728 502.092597116106 L 752.5833897938556 440.4950012326103 M 700.5530370374728 502.092597116106 L 781.1523710742501 504.3660920925854 " fill="none" stroke="#ffffff"/><path id="angle_231.7814170623504" transform="translate(44.162353945238216 -19.75343533627337)" d="M 700.5530370374728 502.092597116106 L 752.5833897938556 440.4950012326103 M 700.5530370374728 502.092597116106 L 781.1523710742501 504.3660920925854 " fill="none" stroke="#ffffff"/><path id="angle_231.7814170623504" transform="translate(58.883138593650955 -26.33791378169783)" d="M 700.5530370374728 502.092597116106 L 752.5833897938556 440.4950012326103 M 700.5530370374728 502.092597116106 L 781.1523710742501 504.3660920925854 " fill="none" stroke="#ffffff"/><path id="angle_231.7814170623504" transform="translate(73.60392324206369 -32.92239222712229)" d="M 700.5530370374728 502.092597116106 L 752.5833897938556 440.4950012326103 M 700.5530370374728 502.092597116106 L 781.1523710742501 504.3660920925854 " fill="none" stroke="#ffffff"/><path id="angle_231.7814170623504" transform="translate(88.32470789047643 -39.50687067254674)" d="M 700.5530370374728 502.092597116106 L 752.5833897938556 440.4950012326103 M 700.5530370374728 502.092597116106 L 781.1523710742501 504.3660920925854 " fill="none" stroke="#ffffff"/><path id="angle_231.7814170623504" transform="translate(103.04549253888916 -46.091349117971205)" d="M 700.5530370374728 502.092597116106 L 752.5833897938556 440.4950012326103 M 700.5530370374728 502.092597116106 L 781.1523710742501 504.3660920925854 " fill="none" stroke="#ffffff"/><path id="angle_231.7814170623504" transform="translate(117.76627718730191 -52.67582756339566)" d="M 700.5530370374728 502.092597116106 L 752.5833897938556 440.4950012326103 M 700.5530370374728 502.092597116106 L 781.1523710742501 504.3660920925854 " fill="none" stroke="#ffffff"/></g><g><path id="angle_232.7814170623504" transform="translate(0 0)" d="M 700.5530370374728 502.092597116106 L 781.1523710742501 504.3660920925854 M 700.5530370374728 502.092597116106 L 749.0284098981649 566.5251948644271 " fill="none" stroke="#ffffff"/><path id="angle_232.7814170623504" transform="translate(14.326211647908567 7.403817723481062)" d="M 700.5530370374728 502.092597116106 L 781.1523710742501 504.3660920925854 M 700.5530370374728 502.092597116106 L 749.0284098981649 566.5251948644271 " fill="none" stroke="#ffffff"/><path id="angle_232.7814170623504" transform="translate(28.652423295817133 14.807635446962124)" d="M 700.5530370374728 502.092597116106 L 781.1523710742501 504.3660920925854 M 700.5530370374728 502.092597116106 L 749.0284098981649 566.5251948644271 " fill="none" stroke="#ffffff"/><path id="angle_232.7814170623504" transform="translate(42.9786349437257 22.21145317044319)" d="M 700.5530370374728 502.092597116106 L 781.1523710742501 504.3660920925854 M 700.5530370374728 502.092597116106 L 749.0284098981649 566.5251948644271 " fill="none" stroke="#ffffff"/><path id="angle_232.7814170623504" transform="translate(57.304846591634266 29.615270893924247)" d="M 700.5530370374728 502.092597116106 L 781.1523710742501 504.3660920925854 M 700.5530370374728 502.092597116106 L 749.0284098981649 566.5251948644271 " fill="none" stroke="#ffffff"/><path id="angle_232.7814170623504" transform="translate(71.63105823954284 37.019088617405316)" d="M 700.5530370374728 502.092597116106 L 781.1523710742501 504.3660920925854 M 700.5530370374728 502.092597116106 L 749.0284098981649 566.5251948644271 " fill="none" stroke="#ffffff"/><path id="angle_232.7814170623504" transform="translate(85.9572698874514 44.42290634088638)" d="M 700.5530370374728 502.092597116106 L 781.1523710742501 504.3660920925854 M 700.5530370374728 502.092597116106 L 749.0284098981649 566.5251948644271 " fill="none" stroke="#ffffff"/><path id="angle_232.7814170623504" transform="translate(100.28348153535997 51.82672406436743)" d="M 700.5530370374728 502.092597116106 L 781.1523710742501 504.3660920925854 M 700.5530370374728 502.092597116106 L 749.0284098981649 566.5251948644271 " fill="none" stroke="#ffffff"/><path id="angle_232.7814170623504" transform="translate(114.60969318326853 59.230541787848495)" d="M 700.5530370374728 502.092597116106 L 781.1523710742501 504.3660920925854 M 700.5530370374728 502.092597116106 L 749.0284098981649 566.5251948644271 " fill="none" stroke="#ffffff"/></g><g><path id="angle_233.7814170623504" transform="translate(0 0)" d="M 700.5530370374728 502.092597116106 L 749.0284098981649 566.5251948644271 M 700.5530370374728 502.092597116106 L 680.4015042405761 580.1652373463152 " fill="none" stroke="#ffffff"/><path id="angle_233.7814170623504" transform="translate(3.1437090750690833 15.816888136246389)" d="M 700.5530370374728 502.092597116106 L 749.0284098981649 566.5251948644271 M 700.5530370374728 502.092597116106 L 680.4015042405761 580.1652373463152 " fill="none" stroke="#ffffff"/><path id="angle_233.7814170623504" transform="translate(6.2874181501381665 31.633776272492778)" d="M 700.5530370374728 502.092597116106 L 749.0284098981649 566.5251948644271 M 700.5530370374728 502.092597116106 L 680.4015042405761 580.1652373463152 " fill="none" stroke="#ffffff"/><path id="angle_233.7814170623504" transform="translate(9.43112722520725 47.450664408739165)" d="M 700.5530370374728 502.092597116106 L 749.0284098981649 566.5251948644271 M 700.5530370374728 502.092597116106 L 680.4015042405761 580.1652373463152 " fill="none" stroke="#ffffff"/><path id="angle_233.7814170623504" transform="translate(12.574836300276333 63.267552544985556)" d="M 700.5530370374728 502.092597116106 L 749.0284098981649 566.5251948644271 M 700.5530370374728 502.092597116106 L 680.4015042405761 580.1652373463152 " fill="none" stroke="#ffffff"/><path id="angle_233.7814170623504" transform="translate(15.718545375345418 79.08444068123194)" d="M 700.5530370374728 502.092597116106 L 749.0284098981649 566.5251948644271 M 700.5530370374728 502.092597116106 L 680.4015042405761 580.1652373463152 " fill="none" stroke="#ffffff"/><path id="angle_233.7814170623504" transform="translate(18.8622544504145 94.90132881747833)" d="M 700.5530370374728 502.092597116106 L 749.0284098981649 566.5251948644271 M 700.5530370374728 502.092597116106 L 680.4015042405761 580.1652373463152 " fill="none" stroke="#ffffff"/><path id="angle_233.7814170623504" transform="translate(22.005963525483583 110.71821695372472)" d="M 700.5530370374728 502.092597116106 L 749.0284098981649 566.5251948644271 M 700.5530370374728 502.092597116106 L 680.4015042405761 580.1652373463152 " fill="none" stroke="#ffffff"/><path id="angle_233.7814170623504" transform="translate(25.149672600552666 126.53510508997111)" d="M 700.5530370374728 502.092597116106 L 749.0284098981649 566.5251948644271 M 700.5530370374728 502.092597116106 L 680.4015042405761 580.1652373463152 " fill="none" stroke="#ffffff"/></g><g><path id="angle_234.7814170623504" transform="translate(0 0)" d="M 700.5530370374728 502.092597116106 L 680.4015042405761 580.1652373463152 M 700.5530370374728 502.092597116106 L 626.9491137954085 535.014989343227 " fill="none" stroke="#ffffff"/><path id="angle_234.7814170623504" transform="translate(-10.406070551276443 12.319519176699252)" d="M 700.5530370374728 502.092597116106 L 680.4015042405761 580.1652373463152 M 700.5530370374728 502.092597116106 L 626.9491137954085 535.014989343227 " fill="none" stroke="#ffffff"/><path id="angle_234.7814170623504" transform="translate(-20.812141102552886 24.639038353398504)" d="M 700.5530370374728 502.092597116106 L 680.4015042405761 580.1652373463152 M 700.5530370374728 502.092597116106 L 626.9491137954085 535.014989343227 " fill="none" stroke="#ffffff"/><path id="angle_234.7814170623504" transform="translate(-31.21821165382933 36.95855753009776)" d="M 700.5530370374728 502.092597116106 L 680.4015042405761 580.1652373463152 M 700.5530370374728 502.092597116106 L 626.9491137954085 535.014989343227 " fill="none" stroke="#ffffff"/><path id="angle_234.7814170623504" transform="translate(-41.62428220510577 49.27807670679701)" d="M 700.5530370374728 502.092597116106 L 680.4015042405761 580.1652373463152 M 700.5530370374728 502.092597116106 L 626.9491137954085 535.014989343227 " fill="none" stroke="#ffffff"/><path id="angle_234.7814170623504" transform="translate(-52.03035275638221 61.59759588349626)" d="M 700.5530370374728 502.092597116106 L 680.4015042405761 580.1652373463152 M 700.5530370374728 502.092597116106 L 626.9491137954085 535.014989343227 " fill="none" stroke="#ffffff"/><path id="angle_234.7814170623504" transform="translate(-62.43642330765866 73.91711506019551)" d="M 700.5530370374728 502.092597116106 L 680.4015042405761 580.1652373463152 M 700.5530370374728 502.092597116106 L 626.9491137954085 535.014989343227 " fill="none" stroke="#ffffff"/><path id="angle_234.7814170623504" transform="translate(-72.8424938589351 86.23663423689477)" d="M 700.5530370374728 502.092597116106 L 680.4015042405761 580.1652373463152 M 700.5530370374728 502.092597116106 L 626.9491137954085 535.014989343227 " fill="none" stroke="#ffffff"/><path id="angle_234.7814170623504" transform="translate(-83.24856441021154 98.55615341359402)" d="M 700.5530370374728 502.092597116106 L 680.4015042405761 580.1652373463152 M 700.5530370374728 502.092597116106 L 626.9491137954085 535.014989343227 " fill="none" stroke="#ffffff"/></g></g><g class="star" id="star_2" transform="matrix(0.5199999999999996 0 0 0.5199999999999996 471 201)"><g><path id="angle_198.62280920338168" transform="translate(0 0)" d="M 408.55712675243615 33.840996047610055 L 463.02729403144224 -37.48412570422709 M 408.55712675243615 33.840996047610055 L 497.56157775704816 45.35098378369918 " fill="none" stroke="#ffffff"/><path id="angle_198.62280920338168" transform="translate(16.56702189758507 -6.906856745121379)" d="M 408.55712675243615 33.840996047610055 L 463.02729403144224 -37.48412570422709 M 408.55712675243615 33.840996047610055 L 497.56157775704816 45.35098378369918 " fill="none" stroke="#ffffff"/><path id="angle_198.62280920338168" transform="translate(33.13404379517014 -13.813713490242758)" d="M 408.55712675243615 33.840996047610055 L 463.02729403144224 -37.48412570422709 M 408.55712675243615 33.840996047610055 L 497.56157775704816 45.35098378369918 " fill="none" stroke="#ffffff"/><path id="angle_198.62280920338168" transform="translate(49.70106569275522 -20.72057023536414)" d="M 408.55712675243615 33.840996047610055 L 463.02729403144224 -37.48412570422709 M 408.55712675243615 33.840996047610055 L 497.56157775704816 45.35098378369918 " fill="none" stroke="#ffffff"/><path id="angle_198.62280920338168" transform="translate(66.26808759034029 -27.627426980485517)" d="M 408.55712675243615 33.840996047610055 L 463.02729403144224 -37.48412570422709 M 408.55712675243615 33.840996047610055 L 497.56157775704816 45.35098378369918 " fill="none" stroke="#ffffff"/><path id="angle_198.62280920338168" transform="translate(82.83510948792537 -34.534283725606905)" d="M 408.55712675243615 33.840996047610055 L 463.02729403144224 -37.48412570422709 M 408.55712675243615 33.840996047610055 L 497.56157775704816 45.35098378369918 " fill="none" stroke="#ffffff"/><path id="angle_198.62280920338168" transform="translate(99.40213138551044 -41.44114047072828)" d="M 408.55712675243615 33.840996047610055 L 463.02729403144224 -37.48412570422709 M 408.55712675243615 33.840996047610055 L 497.56157775704816 45.35098378369918 " fill="none" stroke="#ffffff"/><path id="angle_198.62280920338168" transform="translate(115.96915328309551 -48.34799721584965)" d="M 408.55712675243615 33.840996047610055 L 463.02729403144224 -37.48412570422709 M 408.55712675243615 33.840996047610055 L 497.56157775704816 45.35098378369918 " fill="none" stroke="#ffffff"/></g><g><path id="angle_199.62280920338168" transform="translate(0 0)" d="M 408.55712675243615 33.840996047610055 L 497.56157775704816 45.35098378369918 M 408.55712675243615 33.840996047610055 L 443.09141047804115 116.67610553553621 " fill="none" stroke="#ffffff"/><path id="angle_199.62280920338168" transform="translate(14.26502435036749 10.894033455801143)" d="M 408.55712675243615 33.840996047610055 L 497.56157775704816 45.35098378369918 M 408.55712675243615 33.840996047610055 L 443.09141047804115 116.67610553553621 " fill="none" stroke="#ffffff"/><path id="angle_199.62280920338168" transform="translate(28.53004870073498 21.788066911602286)" d="M 408.55712675243615 33.840996047610055 L 497.56157775704816 45.35098378369918 M 408.55712675243615 33.840996047610055 L 443.09141047804115 116.67610553553621 " fill="none" stroke="#ffffff"/><path id="angle_199.62280920338168" transform="translate(42.79507305110246 32.68210036740343)" d="M 408.55712675243615 33.840996047610055 L 497.56157775704816 45.35098378369918 M 408.55712675243615 33.840996047610055 L 443.09141047804115 116.67610553553621 " fill="none" stroke="#ffffff"/><path id="angle_199.62280920338168" transform="translate(57.06009740146996 43.57613382320457)" d="M 408.55712675243615 33.840996047610055 L 497.56157775704816 45.35098378369918 M 408.55712675243615 33.840996047610055 L 443.09141047804115 116.67610553553621 " fill="none" stroke="#ffffff"/><path id="angle_199.62280920338168" transform="translate(71.32512175183744 54.47016727900571)" d="M 408.55712675243615 33.840996047610055 L 497.56157775704816 45.35098378369918 M 408.55712675243615 33.840996047610055 L 443.09141047804115 116.67610553553621 " fill="none" stroke="#ffffff"/><path id="angle_199.62280920338168" transform="translate(85.59014610220493 65.36420073480686)" d="M 408.55712675243615 33.840996047610055 L 497.56157775704816 45.35098378369918 M 408.55712675243615 33.840996047610055 L 443.09141047804115 116.67610553553621 " fill="none" stroke="#ffffff"/><path id="angle_199.62280920338168" transform="translate(99.85517045257242 76.258234190608)" d="M 408.55712675243615 33.840996047610055 L 497.56157775704816 45.35098378369918 M 408.55712675243615 33.840996047610055 L 443.09141047804115 116.67610553553621 " fill="none" stroke="#ffffff"/></g><g><path id="angle_200.62280920338168" transform="translate(0 0)" d="M 408.55712675243615 33.840996047610055 L 443.09141047804115 116.67610553553621 M 408.55712675243615 33.840996047610055 L 354.0869594734288 105.16611779944623 " fill="none" stroke="#ffffff"/><path id="angle_200.62280920338168" transform="translate(-2.301997547218234 17.800890200922346)" d="M 408.55712675243615 33.840996047610055 L 443.09141047804115 116.67610553553621 M 408.55712675243615 33.840996047610055 L 354.0869594734288 105.16611779944623 " fill="none" stroke="#ffffff"/><path id="angle_200.62280920338168" transform="translate(-4.603995094436468 35.60178040184469)" d="M 408.55712675243615 33.840996047610055 L 443.09141047804115 116.67610553553621 M 408.55712675243615 33.840996047610055 L 354.0869594734288 105.16611779944623 " fill="none" stroke="#ffffff"/><path id="angle_200.62280920338168" transform="translate(-6.905992641654702 53.40267060276704)" d="M 408.55712675243615 33.840996047610055 L 443.09141047804115 116.67610553553621 M 408.55712675243615 33.840996047610055 L 354.0869594734288 105.16611779944623 " fill="none" stroke="#ffffff"/><path id="angle_200.62280920338168" transform="translate(-9.207990188872936 71.20356080368938)" d="M 408.55712675243615 33.840996047610055 L 443.09141047804115 116.67610553553621 M 408.55712675243615 33.840996047610055 L 354.0869594734288 105.16611779944623 " fill="none" stroke="#ffffff"/><path id="angle_200.62280920338168" transform="translate(-11.50998773609117 89.00445100461172)" d="M 408.55712675243615 33.840996047610055 L 443.09141047804115 116.67610553553621 M 408.55712675243615 33.840996047610055 L 354.0869594734288 105.16611779944623 " fill="none" stroke="#ffffff"/><path id="angle_200.62280920338168" transform="translate(-13.811985283309404 106.80534120553408)" d="M 408.55712675243615 33.840996047610055 L 443.09141047804115 116.67610553553621 M 408.55712675243615 33.840996047610055 L 354.0869594734288 105.16611779944623 " fill="none" stroke="#ffffff"/><path id="angle_200.62280920338168" transform="translate(-16.113982830527636 124.60623140645643)" d="M 408.55712675243615 33.840996047610055 L 443.09141047804115 116.67610553553621 M 408.55712675243615 33.840996047610055 L 354.0869594734288 105.16611779944623 " fill="none" stroke="#ffffff"/></g><g><path id="angle_201.62280920338168" transform="translate(0 0)" d="M 408.55712675243615 33.840996047610055 L 354.0869594734288 105.16611779944623 M 408.55712675243615 33.840996047610055 L 319.552675747824 22.331008311521895 " fill="none" stroke="#ffffff"/><path id="angle_201.62280920338168" transform="translate(-16.567021897585192 6.906856745121088)" d="M 408.55712675243615 33.840996047610055 L 354.0869594734288 105.16611779944623 M 408.55712675243615 33.840996047610055 L 319.552675747824 22.331008311521895 " fill="none" stroke="#ffffff"/><path id="angle_201.62280920338168" transform="translate(-33.134043795170385 13.813713490242176)" d="M 408.55712675243615 33.840996047610055 L 354.0869594734288 105.16611779944623 M 408.55712675243615 33.840996047610055 L 319.552675747824 22.331008311521895 " fill="none" stroke="#ffffff"/><path id="angle_201.62280920338168" transform="translate(-49.701065692755584 20.720570235363265)" d="M 408.55712675243615 33.840996047610055 L 354.0869594734288 105.16611779944623 M 408.55712675243615 33.840996047610055 L 319.552675747824 22.331008311521895 " fill="none" stroke="#ffffff"/><path id="angle_201.62280920338168" transform="translate(-66.26808759034077 27.62742698048435)" d="M 408.55712675243615 33.840996047610055 L 354.0869594734288 105.16611779944623 M 408.55712675243615 33.840996047610055 L 319.552675747824 22.331008311521895 " fill="none" stroke="#ffffff"/><path id="angle_201.62280920338168" transform="translate(-82.83510948792596 34.534283725605434)" d="M 408.55712675243615 33.840996047610055 L 354.0869594734288 105.16611779944623 M 408.55712675243615 33.840996047610055 L 319.552675747824 22.331008311521895 " fill="none" stroke="#ffffff"/><path id="angle_201.62280920338168" transform="translate(-99.40213138551117 41.44114047072653)" d="M 408.55712675243615 33.840996047610055 L 354.0869594734288 105.16611779944623 M 408.55712675243615 33.840996047610055 L 319.552675747824 22.331008311521895 " fill="none" stroke="#ffffff"/><path id="angle_201.62280920338168" transform="translate(-115.96915328309635 48.347997215847606)" d="M 408.55712675243615 33.840996047610055 L 354.0869594734288 105.16611779944623 M 408.55712675243615 33.840996047610055 L 319.552675747824 22.331008311521895 " fill="none" stroke="#ffffff"/></g><g><path id="angle_202.62280920338168" transform="translate(0 0)" d="M 408.55712675243615 33.840996047610055 L 319.552675747824 22.331008311521895 M 408.55712675243615 33.840996047610055 L 374.0228430268303 -48.99411344031572 " fill="none" stroke="#ffffff"/><path id="angle_202.62280920338168" transform="translate(-14.265024350367606 -10.894033455800988)" d="M 408.55712675243615 33.840996047610055 L 319.552675747824 22.331008311521895 M 408.55712675243615 33.840996047610055 L 374.0228430268303 -48.99411344031572 " fill="none" stroke="#ffffff"/><path id="angle_202.62280920338168" transform="translate(-28.53004870073521 -21.788066911601977)" d="M 408.55712675243615 33.840996047610055 L 319.552675747824 22.331008311521895 M 408.55712675243615 33.840996047610055 L 374.0228430268303 -48.99411344031572 " fill="none" stroke="#ffffff"/><path id="angle_202.62280920338168" transform="translate(-42.79507305110282 -32.68210036740297)" d="M 408.55712675243615 33.840996047610055 L 319.552675747824 22.331008311521895 M 408.55712675243615 33.840996047610055 L 374.0228430268303 -48.99411344031572 " fill="none" stroke="#ffffff"/><path id="angle_202.62280920338168" transform="translate(-57.06009740147042 -43.57613382320395)" d="M 408.55712675243615 33.840996047610055 L 319.552675747824 22.331008311521895 M 408.55712675243615 33.840996047610055 L 374.0228430268303 -48.99411344031572 " fill="none" stroke="#ffffff"/><path id="angle_202.62280920338168" transform="translate(-71.32512175183803 -54.47016727900495)" d="M 408.55712675243615 33.840996047610055 L 319.552675747824 22.331008311521895 M 408.55712675243615 33.840996047610055 L 374.0228430268303 -48.99411344031572 " fill="none" stroke="#ffffff"/><path id="angle_202.62280920338168" transform="translate(-85.59014610220564 -65.36420073480593)" d="M 408.55712675243615 33.840996047610055 L 319.552675747824 22.331008311521895 M 408.55712675243615 33.840996047610055 L 374.0228430268303 -48.99411344031572 " fill="none" stroke="#ffffff"/><path id="angle_202.62280920338168" transform="translate(-99.85517045257323 -76.25823419060691)" d="M 408.55712675243615 33.840996047610055 L 319.552675747824 22.331008311521895 M 408.55712675243615 33.840996047610055 L 374.0228430268303 -48.99411344031572 " fill="none" stroke="#ffffff"/></g><g><path id="angle_203.62280920338168" transform="translate(0 0)" d="M 408.55712675243615 33.840996047610055 L 374.0228430268303 -48.99411344031572 M 408.55712675243615 33.840996047610055 L 463.02729403144275 -37.48412570422672 " fill="none" stroke="#ffffff"/><path id="angle_203.62280920338168" transform="translate(2.301997547218042 -17.80089020092237)" d="M 408.55712675243615 33.840996047610055 L 374.0228430268303 -48.99411344031572 M 408.55712675243615 33.840996047610055 L 463.02729403144275 -37.48412570422672 " fill="none" stroke="#ffffff"/><path id="angle_203.62280920338168" transform="translate(4.603995094436084 -35.60178040184474)" d="M 408.55712675243615 33.840996047610055 L 374.0228430268303 -48.99411344031572 M 408.55712675243615 33.840996047610055 L 463.02729403144275 -37.48412570422672 " fill="none" stroke="#ffffff"/><path id="angle_203.62280920338168" transform="translate(6.905992641654126 -53.40267060276711)" d="M 408.55712675243615 33.840996047610055 L 374.0228430268303 -48.99411344031572 M 408.55712675243615 33.840996047610055 L 463.02729403144275 -37.48412570422672 " fill="none" stroke="#ffffff"/><path id="angle_203.62280920338168" transform="translate(9.207990188872168 -71.20356080368948)" d="M 408.55712675243615 33.840996047610055 L 374.0228430268303 -48.99411344031572 M 408.55712675243615 33.840996047610055 L 463.02729403144275 -37.48412570422672 " fill="none" stroke="#ffffff"/><path id="angle_203.62280920338168" transform="translate(11.509987736090212 -89.00445100461185)" d="M 408.55712675243615 33.840996047610055 L 374.0228430268303 -48.99411344031572 M 408.55712675243615 33.840996047610055 L 463.02729403144275 -37.48412570422672 " fill="none" stroke="#ffffff"/><path id="angle_203.62280920338168" transform="translate(13.811985283308251 -106.80534120553422)" d="M 408.55712675243615 33.840996047610055 L 374.0228430268303 -48.99411344031572 M 408.55712675243615 33.840996047610055 L 463.02729403144275 -37.48412570422672 " fill="none" stroke="#ffffff"/><path id="angle_203.62280920338168" transform="translate(16.113982830526297 -124.60623140645659)" d="M 408.55712675243615 33.840996047610055 L 374.0228430268303 -48.99411344031572 M 408.55712675243615 33.840996047610055 L 463.02729403144275 -37.48412570422672 " fill="none" stroke="#ffffff"/></g></g><g class="star" id="star_3" transform="matrix(1.2100000000000002 0 0 1.2100000000000002 73 -75)"><g><path id="angle_274.15462200832775" transform="translate(0 0)" d="M 98.82501421884686 503.7859793559631 L 33.530155815782976 528.4883909199978 M 98.82501421884686 503.7859793559631 L 44.7846690681239 459.59017902441747 " fill="none" stroke="#ffffff"/><path id="angle_274.15462200832775" transform="translate(-13.77964237911566 -2.250902650468118)" d="M 98.82501421884686 503.7859793559631 L 33.530155815782976 528.4883909199978 M 98.82501421884686 503.7859793559631 L 44.7846690681239 459.59017902441747 " fill="none" stroke="#ffffff"/><path id="angle_274.15462200832775" transform="translate(-27.55928475823132 -4.501805300936236)" d="M 98.82501421884686 503.7859793559631 L 33.530155815782976 528.4883909199978 M 98.82501421884686 503.7859793559631 L 44.7846690681239 459.59017902441747 " fill="none" stroke="#ffffff"/><path id="angle_274.15462200832775" transform="translate(-41.338927137346985 -6.752707951404354)" d="M 98.82501421884686 503.7859793559631 L 33.530155815782976 528.4883909199978 M 98.82501421884686 503.7859793559631 L 44.7846690681239 459.59017902441747 " fill="none" stroke="#ffffff"/><path id="angle_274.15462200832775" transform="translate(-55.11856951646264 -9.003610601872472)" d="M 98.82501421884686 503.7859793559631 L 33.530155815782976 528.4883909199978 M 98.82501421884686 503.7859793559631 L 44.7846690681239 459.59017902441747 " fill="none" stroke="#ffffff"/><path id="angle_274.15462200832775" transform="translate(-68.8982118955783 -11.254513252340592)" d="M 98.82501421884686 503.7859793559631 L 33.530155815782976 528.4883909199978 M 98.82501421884686 503.7859793559631 L 44.7846690681239 459.59017902441747 " fill="none" stroke="#ffffff"/><path id="angle_274.15462200832775" transform="translate(-82.67785427469397 -13.505415902808709)" d="M 98.82501421884686 503.7859793559631 L 33.530155815782976 528.4883909199978 M 98.82501421884686 503.7859793559631 L 44.7846690681239 459.59017902441747 " fill="none" stroke="#ffffff"/><path id="angle_274.15462200832775" transform="translate(-96.45749665380963 -15.756318553276826)" d="M 98.82501421884686 503.7859793559631 L 33.530155815782976 528.4883909199978 M 98.82501421884686 503.7859793559631 L 44.7846690681239 459.59017902441747 " fill="none" stroke="#ffffff"/><path id="angle_274.15462200832775" transform="translate(-110.23713903292528 -18.007221203744944)" d="M 98.82501421884686 503.7859793559631 L 33.530155815782976 528.4883909199978 M 98.82501421884686 503.7859793559631 L 44.7846690681239 459.59017902441747 " fill="none" stroke="#ffffff"/></g><g><path id="angle_275.15462200832775" transform="translate(0 0)" d="M 98.82501421884686 503.7859793559631 L 44.7846690681239 459.59017902441747 M 98.82501421884686 503.7859793559631 L 110.07952747118708 434.88776746038474 " fill="none" stroke="#ffffff"/><path id="angle_275.15462200832775" transform="translate(-4.940482312806267 -13.058971680613034)" d="M 98.82501421884686 503.7859793559631 L 44.7846690681239 459.59017902441747 M 98.82501421884686 503.7859793559631 L 110.07952747118708 434.88776746038474 " fill="none" stroke="#ffffff"/><path id="angle_275.15462200832775" transform="translate(-9.880964625612535 -26.117943361226068)" d="M 98.82501421884686 503.7859793559631 L 44.7846690681239 459.59017902441747 M 98.82501421884686 503.7859793559631 L 110.07952747118708 434.88776746038474 " fill="none" stroke="#ffffff"/><path id="angle_275.15462200832775" transform="translate(-14.8214469384188 -39.176915041839095)" d="M 98.82501421884686 503.7859793559631 L 44.7846690681239 459.59017902441747 M 98.82501421884686 503.7859793559631 L 110.07952747118708 434.88776746038474 " fill="none" stroke="#ffffff"/><path id="angle_275.15462200832775" transform="translate(-19.76192925122507 -52.235886722452136)" d="M 98.82501421884686 503.7859793559631 L 44.7846690681239 459.59017902441747 M 98.82501421884686 503.7859793559631 L 110.07952747118708 434.88776746038474 " fill="none" stroke="#ffffff"/><path id="angle_275.15462200832775" transform="translate(-24.702411564031337 -65.29485840306515)" d="M 98.82501421884686 503.7859793559631 L 44.7846690681239 459.59017902441747 M 98.82501421884686 503.7859793559631 L 110.07952747118708 434.88776746038474 " fill="none" stroke="#ffffff"/><path id="angle_275.15462200832775" transform="translate(-29.6428938768376 -78.35383008367819)" d="M 98.82501421884686 503.7859793559631 L 44.7846690681239 459.59017902441747 M 98.82501421884686 503.7859793559631 L 110.07952747118708 434.88776746038474 " fill="none" stroke="#ffffff"/><path id="angle_275.15462200832775" transform="translate(-34.58337618964387 -91.41280176429122)" d="M 98.82501421884686 503.7859793559631 L 44.7846690681239 459.59017902441747 M 98.82501421884686 503.7859793559631 L 110.07952747118708 434.88776746038474 " fill="none" stroke="#ffffff"/><path id="angle_275.15462200832775" transform="translate(-39.52385850245014 -104.47177344490427)" d="M 98.82501421884686 503.7859793559631 L 44.7846690681239 459.59017902441747 M 98.82501421884686 503.7859793559631 L 110.07952747118708 434.88776746038474 " fill="none" stroke="#ffffff"/></g><g><path id="angle_276.15462200832775" transform="translate(0 0)" d="M 98.82501421884686 503.7859793559631 L 110.07952747118708 434.88776746038474 M 98.82501421884686 503.7859793559631 L 164.11987262191047 479.0835677919277 " fill="none" stroke="#ffffff"/><path id="angle_276.15462200832775" transform="translate(8.839160066309073 -10.80806903014464)" d="M 98.82501421884686 503.7859793559631 L 110.07952747118708 434.88776746038474 M 98.82501421884686 503.7859793559631 L 164.11987262191047 479.0835677919277 " fill="none" stroke="#ffffff"/><path id="angle_276.15462200832775" transform="translate(17.678320132618147 -21.61613806028928)" d="M 98.82501421884686 503.7859793559631 L 110.07952747118708 434.88776746038474 M 98.82501421884686 503.7859793559631 L 164.11987262191047 479.0835677919277 " fill="none" stroke="#ffffff"/><path id="angle_276.15462200832775" transform="translate(26.51748019892722 -32.424207090433924)" d="M 98.82501421884686 503.7859793559631 L 110.07952747118708 434.88776746038474 M 98.82501421884686 503.7859793559631 L 164.11987262191047 479.0835677919277 " fill="none" stroke="#ffffff"/><path id="angle_276.15462200832775" transform="translate(35.356640265236294 -43.23227612057856)" d="M 98.82501421884686 503.7859793559631 L 110.07952747118708 434.88776746038474 M 98.82501421884686 503.7859793559631 L 164.11987262191047 479.0835677919277 " fill="none" stroke="#ffffff"/><path id="angle_276.15462200832775" transform="translate(44.19580033154537 -54.040345150723205)" d="M 98.82501421884686 503.7859793559631 L 110.07952747118708 434.88776746038474 M 98.82501421884686 503.7859793559631 L 164.11987262191047 479.0835677919277 " fill="none" stroke="#ffffff"/><path id="angle_276.15462200832775" transform="translate(53.03496039785444 -64.84841418086785)" d="M 98.82501421884686 503.7859793559631 L 110.07952747118708 434.88776746038474 M 98.82501421884686 503.7859793559631 L 164.11987262191047 479.0835677919277 " fill="none" stroke="#ffffff"/><path id="angle_276.15462200832775" transform="translate(61.874120464163504 -75.65648321101249)" d="M 98.82501421884686 503.7859793559631 L 110.07952747118708 434.88776746038474 M 98.82501421884686 503.7859793559631 L 164.11987262191047 479.0835677919277 " fill="none" stroke="#ffffff"/><path id="angle_276.15462200832775" transform="translate(70.71328053047259 -86.46455224115712)" d="M 98.82501421884686 503.7859793559631 L 110.07952747118708 434.88776746038474 M 98.82501421884686 503.7859793559631 L 164.11987262191047 479.0835677919277 " fill="none" stroke="#ffffff"/></g><g><path id="angle_277.15462200832775" transform="translate(0 0)" d="M 98.82501421884686 503.7859793559631 L 164.11987262191047 479.0835677919277 M 98.82501421884686 503.7859793559631 L 152.8653593695703 547.9817796875082 " fill="none" stroke="#ffffff"/><path id="angle_277.15462200832775" transform="translate(13.779642379115685 2.2509026504679697)" d="M 98.82501421884686 503.7859793559631 L 164.11987262191047 479.0835677919277 M 98.82501421884686 503.7859793559631 L 152.8653593695703 547.9817796875082 " fill="none" stroke="#ffffff"/><path id="angle_277.15462200832775" transform="translate(27.55928475823137 4.501805300935939)" d="M 98.82501421884686 503.7859793559631 L 164.11987262191047 479.0835677919277 M 98.82501421884686 503.7859793559631 L 152.8653593695703 547.9817796875082 " fill="none" stroke="#ffffff"/><path id="angle_277.15462200832775" transform="translate(41.338927137347056 6.7527079514039094)" d="M 98.82501421884686 503.7859793559631 L 164.11987262191047 479.0835677919277 M 98.82501421884686 503.7859793559631 L 152.8653593695703 547.9817796875082 " fill="none" stroke="#ffffff"/><path id="angle_277.15462200832775" transform="translate(55.11856951646274 9.003610601871879)" d="M 98.82501421884686 503.7859793559631 L 164.11987262191047 479.0835677919277 M 98.82501421884686 503.7859793559631 L 152.8653593695703 547.9817796875082 " fill="none" stroke="#ffffff"/><path id="angle_277.15462200832775" transform="translate(68.89821189557843 11.254513252339848)" d="M 98.82501421884686 503.7859793559631 L 164.11987262191047 479.0835677919277 M 98.82501421884686 503.7859793559631 L 152.8653593695703 547.9817796875082 " fill="none" stroke="#ffffff"/><path id="angle_277.15462200832775" transform="translate(82.67785427469411 13.505415902807819)" d="M 98.82501421884686 503.7859793559631 L 164.11987262191047 479.0835677919277 M 98.82501421884686 503.7859793559631 L 152.8653593695703 547.9817796875082 " fill="none" stroke="#ffffff"/><path id="angle_277.15462200832775" transform="translate(96.4574966538098 15.75631855327579)" d="M 98.82501421884686 503.7859793559631 L 164.11987262191047 479.0835677919277 M 98.82501421884686 503.7859793559631 L 152.8653593695703 547.9817796875082 " fill="none" stroke="#ffffff"/><path id="angle_277.15462200832775" transform="translate(110.23713903292548 18.007221203743757)" d="M 98.82501421884686 503.7859793559631 L 164.11987262191047 479.0835677919277 M 98.82501421884686 503.7859793559631 L 152.8653593695703 547.9817796875082 " fill="none" stroke="#ffffff"/></g><g><path id="angle_278.15462200832775" transform="translate(0 0)" d="M 98.82501421884686 503.7859793559631 L 152.8653593695703 547.9817796875082 M 98.82501421884686 503.7859793559631 L 87.57050096650738 572.6841912515416 " fill="none" stroke="#ffffff"/><path id="angle_278.15462200832775" transform="translate(4.940482312806409 13.058971680612979)" d="M 98.82501421884686 503.7859793559631 L 152.8653593695703 547.9817796875082 M 98.82501421884686 503.7859793559631 L 87.57050096650738 572.6841912515416 " fill="none" stroke="#ffffff"/><path id="angle_278.15462200832775" transform="translate(9.880964625612817 26.117943361225958)" d="M 98.82501421884686 503.7859793559631 L 152.8653593695703 547.9817796875082 M 98.82501421884686 503.7859793559631 L 87.57050096650738 572.6841912515416 " fill="none" stroke="#ffffff"/><path id="angle_278.15462200832775" transform="translate(14.821446938419227 39.17691504183893)" d="M 98.82501421884686 503.7859793559631 L 152.8653593695703 547.9817796875082 M 98.82501421884686 503.7859793559631 L 87.57050096650738 572.6841912515416 " fill="none" stroke="#ffffff"/><path id="angle_278.15462200832775" transform="translate(19.761929251225634 52.235886722451916)" d="M 98.82501421884686 503.7859793559631 L 152.8653593695703 547.9817796875082 M 98.82501421884686 503.7859793559631 L 87.57050096650738 572.6841912515416 " fill="none" stroke="#ffffff"/><path id="angle_278.15462200832775" transform="translate(24.70241156403204 65.2948584030649)" d="M 98.82501421884686 503.7859793559631 L 152.8653593695703 547.9817796875082 M 98.82501421884686 503.7859793559631 L 87.57050096650738 572.6841912515416 " fill="none" stroke="#ffffff"/><path id="angle_278.15462200832775" transform="translate(29.642893876838453 78.35383008367786)" d="M 98.82501421884686 503.7859793559631 L 152.8653593695703 547.9817796875082 M 98.82501421884686 503.7859793559631 L 87.57050096650738 572.6841912515416 " fill="none" stroke="#ffffff"/><path id="angle_278.15462200832775" transform="translate(34.58337618964486 91.41280176429085)" d="M 98.82501421884686 503.7859793559631 L 152.8653593695703 547.9817796875082 M 98.82501421884686 503.7859793559631 L 87.57050096650738 572.6841912515416 " fill="none" stroke="#ffffff"/><path id="angle_278.15462200832775" transform="translate(39.52385850245127 104.47177344490383)" d="M 98.82501421884686 503.7859793559631 L 152.8653593695703 547.9817796875082 M 98.82501421884686 503.7859793559631 L 87.57050096650738 572.6841912515416 " fill="none" stroke="#ffffff"/></g><g><path id="angle_279.15462200832775" transform="translate(0 0)" d="M 98.82501421884686 503.7859793559631 L 87.57050096650738 572.6841912515416 M 98.82501421884686 503.7859793559631 L 33.530155815782095 528.4883909199955 " fill="none" stroke="#ffffff"/><path id="angle_279.15462200832775" transform="translate(-8.839160066308956 10.808069030144736)" d="M 98.82501421884686 503.7859793559631 L 87.57050096650738 572.6841912515416 M 98.82501421884686 503.7859793559631 L 33.530155815782095 528.4883909199955 " fill="none" stroke="#ffffff"/><path id="angle_279.15462200832775" transform="translate(-17.678320132617912 21.616138060289472)" d="M 98.82501421884686 503.7859793559631 L 87.57050096650738 572.6841912515416 M 98.82501421884686 503.7859793559631 L 33.530155815782095 528.4883909199955 " fill="none" stroke="#ffffff"/><path id="angle_279.15462200832775" transform="translate(-26.51748019892687 32.42420709043421)" d="M 98.82501421884686 503.7859793559631 L 87.57050096650738 572.6841912515416 M 98.82501421884686 503.7859793559631 L 33.530155815782095 528.4883909199955 " fill="none" stroke="#ffffff"/><path id="angle_279.15462200832775" transform="translate(-35.356640265235825 43.232276120578945)" d="M 98.82501421884686 503.7859793559631 L 87.57050096650738 572.6841912515416 M 98.82501421884686 503.7859793559631 L 33.530155815782095 528.4883909199955 " fill="none" stroke="#ffffff"/><path id="angle_279.15462200832775" transform="translate(-44.19580033154478 54.04034515072368)" d="M 98.82501421884686 503.7859793559631 L 87.57050096650738 572.6841912515416 M 98.82501421884686 503.7859793559631 L 33.530155815782095 528.4883909199955 " fill="none" stroke="#ffffff"/><path id="angle_279.15462200832775" transform="translate(-53.03496039785374 64.84841418086842)" d="M 98.82501421884686 503.7859793559631 L 87.57050096650738 572.6841912515416 M 98.82501421884686 503.7859793559631 L 33.530155815782095 528.4883909199955 " fill="none" stroke="#ffffff"/><path id="angle_279.15462200832775" transform="translate(-61.87412046416269 75.65648321101315)" d="M 98.82501421884686 503.7859793559631 L 87.57050096650738 572.6841912515416 M 98.82501421884686 503.7859793559631 L 33.530155815782095 528.4883909199955 " fill="none" stroke="#ffffff"/><path id="angle_279.15462200832775" transform="translate(-70.71328053047165 86.46455224115789)" d="M 98.82501421884686 503.7859793559631 L 87.57050096650738 572.6841912515416 M 98.82501421884686 503.7859793559631 L 33.530155815782095 528.4883909199955 " fill="none" stroke="#ffffff"/></g></g><g class="star" id="star_4" transform="matrix(1 0 0 1 -48 72)"><g><path id="angle_172.04851336741973" transform="translate(0 0)" d="M 168.3306657247307 82.24064589075624 L 99.34940335422996 117.52373214625885 M 168.3306657247307 82.24064589075624 L 103.28398551829775 40.14266342053397 " fill="none" stroke="#ffffff"/><path id="angle_172.04851336741973" transform="translate(-15.47621374514491 -0.786916432813334)" d="M 168.3306657247307 82.24064589075624 L 99.34940335422996 117.52373214625885 M 168.3306657247307 82.24064589075624 L 103.28398551829775 40.14266342053397 " fill="none" stroke="#ffffff"/><path id="angle_172.04851336741973" transform="translate(-30.95242749028982 -1.573832865626668)" d="M 168.3306657247307 82.24064589075624 L 99.34940335422996 117.52373214625885 M 168.3306657247307 82.24064589075624 L 103.28398551829775 40.14266342053397 " fill="none" stroke="#ffffff"/><path id="angle_172.04851336741973" transform="translate(-46.428641235434725 -2.360749298440002)" d="M 168.3306657247307 82.24064589075624 L 99.34940335422996 117.52373214625885 M 168.3306657247307 82.24064589075624 L 103.28398551829775 40.14266342053397 " fill="none" stroke="#ffffff"/><path id="angle_172.04851336741973" transform="translate(-61.90485498057964 -3.147665731253336)" d="M 168.3306657247307 82.24064589075624 L 99.34940335422996 117.52373214625885 M 168.3306657247307 82.24064589075624 L 103.28398551829775 40.14266342053397 " fill="none" stroke="#ffffff"/><path id="angle_172.04851336741973" transform="translate(-77.38106872572453 -3.93458216406667)" d="M 168.3306657247307 82.24064589075624 L 99.34940335422996 117.52373214625885 M 168.3306657247307 82.24064589075624 L 103.28398551829775 40.14266342053397 " fill="none" stroke="#ffffff"/><path id="angle_172.04851336741973" transform="translate(-92.85728247086945 -4.721498596880004)" d="M 168.3306657247307 82.24064589075624 L 99.34940335422996 117.52373214625885 M 168.3306657247307 82.24064589075624 L 103.28398551829775 40.14266342053397 " fill="none" stroke="#ffffff"/><path id="angle_172.04851336741973" transform="translate(-108.33349621601437 -5.508415029693338)" d="M 168.3306657247307 82.24064589075624 L 99.34940335422996 117.52373214625885 M 168.3306657247307 82.24064589075624 L 103.28398551829775 40.14266342053397 " fill="none" stroke="#ffffff"/></g><g><path id="angle_173.04851336741973" transform="translate(0 0)" d="M 168.3306657247307 82.24064589075624 L 103.28398551829775 40.14266342053397 M 168.3306657247307 82.24064589075624 L 172.26524788879695 4.859577165031681 " fill="none" stroke="#ffffff"/><path id="angle_173.04851336741973" transform="translate(-7.056617251100596 -13.796252474100106)" d="M 168.3306657247307 82.24064589075624 L 103.28398551829775 40.14266342053397 M 168.3306657247307 82.24064589075624 L 172.26524788879695 4.859577165031681 " fill="none" stroke="#ffffff"/><path id="angle_173.04851336741973" transform="translate(-14.113234502201191 -27.59250494820021)" d="M 168.3306657247307 82.24064589075624 L 103.28398551829775 40.14266342053397 M 168.3306657247307 82.24064589075624 L 172.26524788879695 4.859577165031681 " fill="none" stroke="#ffffff"/><path id="angle_173.04851336741973" transform="translate(-21.169851753301785 -41.38875742230032)" d="M 168.3306657247307 82.24064589075624 L 103.28398551829775 40.14266342053397 M 168.3306657247307 82.24064589075624 L 172.26524788879695 4.859577165031681 " fill="none" stroke="#ffffff"/><path id="angle_173.04851336741973" transform="translate(-28.226469004402382 -55.18500989640042)" d="M 168.3306657247307 82.24064589075624 L 103.28398551829775 40.14266342053397 M 168.3306657247307 82.24064589075624 L 172.26524788879695 4.859577165031681 " fill="none" stroke="#ffffff"/><path id="angle_173.04851336741973" transform="translate(-35.28308625550298 -68.98126237050053)" d="M 168.3306657247307 82.24064589075624 L 103.28398551829775 40.14266342053397 M 168.3306657247307 82.24064589075624 L 172.26524788879695 4.859577165031681 " fill="none" stroke="#ffffff"/><path id="angle_173.04851336741973" transform="translate(-42.33970350660357 -82.77751484460065)" d="M 168.3306657247307 82.24064589075624 L 103.28398551829775 40.14266342053397 M 168.3306657247307 82.24064589075624 L 172.26524788879695 4.859577165031681 " fill="none" stroke="#ffffff"/><path id="angle_173.04851336741973" transform="translate(-49.39632075770417 -96.57376731870076)" d="M 168.3306657247307 82.24064589075624 L 103.28398551829775 40.14266342053397 M 168.3306657247307 82.24064589075624 L 172.26524788879695 4.859577165031681 " fill="none" stroke="#ffffff"/></g><g><path id="angle_174.04851336741973" transform="translate(0 0)" d="M 168.3306657247307 82.24064589075624 L 172.26524788879695 4.859577165031681 M 168.3306657247307 82.24064589075624 L 237.31192809523105 46.957559635252885 " fill="none" stroke="#ffffff"/><path id="angle_174.04851336741973" transform="translate(8.419596494044017 -13.009336041286872)" d="M 168.3306657247307 82.24064589075624 L 172.26524788879695 4.859577165031681 M 168.3306657247307 82.24064589075624 L 237.31192809523105 46.957559635252885 " fill="none" stroke="#ffffff"/><path id="angle_174.04851336741973" transform="translate(16.839192988088033 -26.018672082573744)" d="M 168.3306657247307 82.24064589075624 L 172.26524788879695 4.859577165031681 M 168.3306657247307 82.24064589075624 L 237.31192809523105 46.957559635252885 " fill="none" stroke="#ffffff"/><path id="angle_174.04851336741973" transform="translate(25.258789482132048 -39.028008123860616)" d="M 168.3306657247307 82.24064589075624 L 172.26524788879695 4.859577165031681 M 168.3306657247307 82.24064589075624 L 237.31192809523105 46.957559635252885 " fill="none" stroke="#ffffff"/><path id="angle_174.04851336741973" transform="translate(33.67838597617607 -52.03734416514749)" d="M 168.3306657247307 82.24064589075624 L 172.26524788879695 4.859577165031681 M 168.3306657247307 82.24064589075624 L 237.31192809523105 46.957559635252885 " fill="none" stroke="#ffffff"/><path id="angle_174.04851336741973" transform="translate(42.097982470220074 -65.04668020643436)" d="M 168.3306657247307 82.24064589075624 L 172.26524788879695 4.859577165031681 M 168.3306657247307 82.24064589075624 L 237.31192809523105 46.957559635252885 " fill="none" stroke="#ffffff"/><path id="angle_174.04851336741973" transform="translate(50.517578964264096 -78.05601624772123)" d="M 168.3306657247307 82.24064589075624 L 172.26524788879695 4.859577165031681 M 168.3306657247307 82.24064589075624 L 237.31192809523105 46.957559635252885 " fill="none" stroke="#ffffff"/><path id="angle_174.04851336741973" transform="translate(58.93717545830812 -91.0653522890081)" d="M 168.3306657247307 82.24064589075624 L 172.26524788879695 4.859577165031681 M 168.3306657247307 82.24064589075624 L 237.31192809523105 46.957559635252885 " fill="none" stroke="#ffffff"/></g><g><path id="angle_175.04851336741973" transform="translate(0 0)" d="M 168.3306657247307 82.24064589075624 L 237.31192809523105 46.957559635252885 M 168.3306657247307 82.24064589075624 L 233.3773459311641 124.33862836097782 " fill="none" stroke="#ffffff"/><path id="angle_175.04851336741973" transform="translate(15.476213745144896 0.7869164328136068)" d="M 168.3306657247307 82.24064589075624 L 237.31192809523105 46.957559635252885 M 168.3306657247307 82.24064589075624 L 233.3773459311641 124.33862836097782 " fill="none" stroke="#ffffff"/><path id="angle_175.04851336741973" transform="translate(30.952427490289793 1.5738328656272136)" d="M 168.3306657247307 82.24064589075624 L 237.31192809523105 46.957559635252885 M 168.3306657247307 82.24064589075624 L 233.3773459311641 124.33862836097782 " fill="none" stroke="#ffffff"/><path id="angle_175.04851336741973" transform="translate(46.42864123543468 2.3607492984408207)" d="M 168.3306657247307 82.24064589075624 L 237.31192809523105 46.957559635252885 M 168.3306657247307 82.24064589075624 L 233.3773459311641 124.33862836097782 " fill="none" stroke="#ffffff"/><path id="angle_175.04851336741973" transform="translate(61.904854980579586 3.147665731254427)" d="M 168.3306657247307 82.24064589075624 L 237.31192809523105 46.957559635252885 M 168.3306657247307 82.24064589075624 L 233.3773459311641 124.33862836097782 " fill="none" stroke="#ffffff"/><path id="angle_175.04851336741973" transform="translate(77.38106872572448 3.9345821640680345)" d="M 168.3306657247307 82.24064589075624 L 237.31192809523105 46.957559635252885 M 168.3306657247307 82.24064589075624 L 233.3773459311641 124.33862836097782 " fill="none" stroke="#ffffff"/><path id="angle_175.04851336741973" transform="translate(92.85728247086936 4.721498596881641)" d="M 168.3306657247307 82.24064589075624 L 237.31192809523105 46.957559635252885 M 168.3306657247307 82.24064589075624 L 233.3773459311641 124.33862836097782 " fill="none" stroke="#ffffff"/><path id="angle_175.04851336741973" transform="translate(108.33349621601427 5.508415029695248)" d="M 168.3306657247307 82.24064589075624 L 237.31192809523105 46.957559635252885 M 168.3306657247307 82.24064589075624 L 233.3773459311641 124.33862836097782 " fill="none" stroke="#ffffff"/></g><g><path id="angle_176.04851336741973" transform="translate(0 0)" d="M 168.3306657247307 82.24064589075624 L 233.3773459311641 124.33862836097782 M 168.3306657247307 82.24064589075624 L 164.39608356066307 159.62171461648074 " fill="none" stroke="#ffffff"/><path id="angle_176.04851336741973" transform="translate(7.056617251100351 13.796252474100232)" d="M 168.3306657247307 82.24064589075624 L 233.3773459311641 124.33862836097782 M 168.3306657247307 82.24064589075624 L 164.39608356066307 159.62171461648074 " fill="none" stroke="#ffffff"/><path id="angle_176.04851336741973" transform="translate(14.113234502200703 27.592504948200464)" d="M 168.3306657247307 82.24064589075624 L 233.3773459311641 124.33862836097782 M 168.3306657247307 82.24064589075624 L 164.39608356066307 159.62171461648074 " fill="none" stroke="#ffffff"/><path id="angle_176.04851336741973" transform="translate(21.16985175330106 41.3887574223007)" d="M 168.3306657247307 82.24064589075624 L 233.3773459311641 124.33862836097782 M 168.3306657247307 82.24064589075624 L 164.39608356066307 159.62171461648074 " fill="none" stroke="#ffffff"/><path id="angle_176.04851336741973" transform="translate(28.226469004401405 55.18500989640093)" d="M 168.3306657247307 82.24064589075624 L 233.3773459311641 124.33862836097782 M 168.3306657247307 82.24064589075624 L 164.39608356066307 159.62171461648074 " fill="none" stroke="#ffffff"/><path id="angle_176.04851336741973" transform="translate(35.283086255501765 68.98126237050116)" d="M 168.3306657247307 82.24064589075624 L 233.3773459311641 124.33862836097782 M 168.3306657247307 82.24064589075624 L 164.39608356066307 159.62171461648074 " fill="none" stroke="#ffffff"/><path id="angle_176.04851336741973" transform="translate(42.33970350660212 82.7775148446014)" d="M 168.3306657247307 82.24064589075624 L 233.3773459311641 124.33862836097782 M 168.3306657247307 82.24064589075624 L 164.39608356066307 159.62171461648074 " fill="none" stroke="#ffffff"/><path id="angle_176.04851336741973" transform="translate(49.39632075770246 96.57376731870163)" d="M 168.3306657247307 82.24064589075624 L 233.3773459311641 124.33862836097782 M 168.3306657247307 82.24064589075624 L 164.39608356066307 159.62171461648074 " fill="none" stroke="#ffffff"/></g><g><path id="angle_177.04851336741973" transform="translate(0 0)" d="M 168.3306657247307 82.24064589075624 L 164.39608356066307 159.62171461648074 M 168.3306657247307 82.24064589075624 L 99.34940335423073 117.52373214626033 " fill="none" stroke="#ffffff"/><path id="angle_177.04851336741973" transform="translate(-8.419596494044244 13.009336041286724)" d="M 168.3306657247307 82.24064589075624 L 164.39608356066307 159.62171461648074 M 168.3306657247307 82.24064589075624 L 99.34940335423073 117.52373214626033 " fill="none" stroke="#ffffff"/><path id="angle_177.04851336741973" transform="translate(-16.839192988088488 26.01867208257345)" d="M 168.3306657247307 82.24064589075624 L 164.39608356066307 159.62171461648074 M 168.3306657247307 82.24064589075624 L 99.34940335423073 117.52373214626033 " fill="none" stroke="#ffffff"/><path id="angle_177.04851336741973" transform="translate(-25.258789482132734 39.028008123860175)" d="M 168.3306657247307 82.24064589075624 L 164.39608356066307 159.62171461648074 M 168.3306657247307 82.24064589075624 L 99.34940335423073 117.52373214626033 " fill="none" stroke="#ffffff"/><path id="angle_177.04851336741973" transform="translate(-33.678385976176976 52.0373441651469)" d="M 168.3306657247307 82.24064589075624 L 164.39608356066307 159.62171461648074 M 168.3306657247307 82.24064589075624 L 99.34940335423073 117.52373214626033 " fill="none" stroke="#ffffff"/><path id="angle_177.04851336741973" transform="translate(-42.097982470221226 65.04668020643362)" d="M 168.3306657247307 82.24064589075624 L 164.39608356066307 159.62171461648074 M 168.3306657247307 82.24064589075624 L 99.34940335423073 117.52373214626033 " fill="none" stroke="#ffffff"/><path id="angle_177.04851336741973" transform="translate(-50.51757896426547 78.05601624772035)" d="M 168.3306657247307 82.24064589075624 L 164.39608356066307 159.62171461648074 M 168.3306657247307 82.24064589075624 L 99.34940335423073 117.52373214626033 " fill="none" stroke="#ffffff"/><path id="angle_177.04851336741973" transform="translate(-58.93717545830971 91.06535228900708)" d="M 168.3306657247307 82.24064589075624 L 164.39608356066307 159.62171461648074 M 168.3306657247307 82.24064589075624 L 99.34940335423073 117.52373214626033 " fill="none" stroke="#ffffff"/></g></g><g class="star" id="star_5" transform="matrix(0.8099999999999998 0 0 0.8099999999999998 58 54)"><g><path id="angle_17.218166196907365" transform="translate(0 0)" d="M 510.3144016403081 412.1573720909459 L 460.3313294334135 365.40044676051536 M 510.3144016403081 412.1573720909459 L 525.8155506758657 345.49229913536794 " fill="none" stroke="#ffffff"/><path id="angle_17.218166196907365" transform="translate(-3.9816295250294873 -13.096844248490454)" d="M 510.3144016403081 412.1573720909459 L 460.3313294334135 365.40044676051536 M 510.3144016403081 412.1573720909459 L 525.8155506758657 345.49229913536794 " fill="none" stroke="#ffffff"/><path id="angle_17.218166196907365" transform="translate(-7.963259050058975 -26.193688496980908)" d="M 510.3144016403081 412.1573720909459 L 460.3313294334135 365.40044676051536 M 510.3144016403081 412.1573720909459 L 525.8155506758657 345.49229913536794 " fill="none" stroke="#ffffff"/><path id="angle_17.218166196907365" transform="translate(-11.94488857508846 -39.29053274547136)" d="M 510.3144016403081 412.1573720909459 L 460.3313294334135 365.40044676051536 M 510.3144016403081 412.1573720909459 L 525.8155506758657 345.49229913536794 " fill="none" stroke="#ffffff"/><path id="angle_17.218166196907365" transform="translate(-15.92651810011795 -52.387376993961816)" d="M 510.3144016403081 412.1573720909459 L 460.3313294334135 365.40044676051536 M 510.3144016403081 412.1573720909459 L 525.8155506758657 345.49229913536794 " fill="none" stroke="#ffffff"/><path id="angle_17.218166196907365" transform="translate(-19.908147625147436 -65.48422124245226)" d="M 510.3144016403081 412.1573720909459 L 460.3313294334135 365.40044676051536 M 510.3144016403081 412.1573720909459 L 525.8155506758657 345.49229913536794 " fill="none" stroke="#ffffff"/><path id="angle_17.218166196907365" transform="translate(-23.88977715017692 -78.58106549094272)" d="M 510.3144016403081 412.1573720909459 L 460.3313294334135 365.40044676051536 M 510.3144016403081 412.1573720909459 L 525.8155506758657 345.49229913536794 " fill="none" stroke="#ffffff"/><path id="angle_17.218166196907365" transform="translate(-27.871406675206405 -91.67790973943316)" d="M 510.3144016403081 412.1573720909459 L 460.3313294334135 365.40044676051536 M 510.3144016403081 412.1573720909459 L 525.8155506758657 345.49229913536794 " fill="none" stroke="#ffffff"/></g><g><path id="angle_18.218166196907365" transform="translate(0 0)" d="M 510.3144016403081 412.1573720909459 L 525.8155506758657 345.49229913536794 M 510.3144016403081 412.1573720909459 L 575.7986228827604 392.24922446579836 " fill="none" stroke="#ffffff"/><path id="angle_18.218166196907365" transform="translate(9.351385066086092 -9.996614441378942)" d="M 510.3144016403081 412.1573720909459 L 525.8155506758657 345.49229913536794 M 510.3144016403081 412.1573720909459 L 575.7986228827604 392.24922446579836 " fill="none" stroke="#ffffff"/><path id="angle_18.218166196907365" transform="translate(18.702770132172184 -19.993228882757883)" d="M 510.3144016403081 412.1573720909459 L 525.8155506758657 345.49229913536794 M 510.3144016403081 412.1573720909459 L 575.7986228827604 392.24922446579836 " fill="none" stroke="#ffffff"/><path id="angle_18.218166196907365" transform="translate(28.054155198258275 -29.989843324136825)" d="M 510.3144016403081 412.1573720909459 L 525.8155506758657 345.49229913536794 M 510.3144016403081 412.1573720909459 L 575.7986228827604 392.24922446579836 " fill="none" stroke="#ffffff"/><path id="angle_18.218166196907365" transform="translate(37.40554026434437 -39.986457765515766)" d="M 510.3144016403081 412.1573720909459 L 525.8155506758657 345.49229913536794 M 510.3144016403081 412.1573720909459 L 575.7986228827604 392.24922446579836 " fill="none" stroke="#ffffff"/><path id="angle_18.218166196907365" transform="translate(46.756925330430455 -49.98307220689471)" d="M 510.3144016403081 412.1573720909459 L 525.8155506758657 345.49229913536794 M 510.3144016403081 412.1573720909459 L 575.7986228827604 392.24922446579836 " fill="none" stroke="#ffffff"/><path id="angle_18.218166196907365" transform="translate(56.10831039651655 -59.97968664827365)" d="M 510.3144016403081 412.1573720909459 L 525.8155506758657 345.49229913536794 M 510.3144016403081 412.1573720909459 L 575.7986228827604 392.24922446579836 " fill="none" stroke="#ffffff"/><path id="angle_18.218166196907365" transform="translate(65.45969546260264 -69.9763010896526)" d="M 510.3144016403081 412.1573720909459 L 525.8155506758657 345.49229913536794 M 510.3144016403081 412.1573720909459 L 575.7986228827604 392.24922446579836 " fill="none" stroke="#ffffff"/></g><g><path id="angle_19.218166196907365" transform="translate(0 0)" d="M 510.3144016403081 412.1573720909459 L 575.7986228827604 392.24922446579836 M 510.3144016403081 412.1573720909459 L 560.2974738472028 458.91429742137643 " fill="none" stroke="#ffffff"/><path id="angle_19.218166196907365" transform="translate(13.333014591115598 3.1002298071114893)" d="M 510.3144016403081 412.1573720909459 L 575.7986228827604 392.24922446579836 M 510.3144016403081 412.1573720909459 L 560.2974738472028 458.91429742137643 " fill="none" stroke="#ffffff"/><path id="angle_19.218166196907365" transform="translate(26.666029182231195 6.200459614222979)" d="M 510.3144016403081 412.1573720909459 L 575.7986228827604 392.24922446579836 M 510.3144016403081 412.1573720909459 L 560.2974738472028 458.91429742137643 " fill="none" stroke="#ffffff"/><path id="angle_19.218166196907365" transform="translate(39.99904377334679 9.300689421334468)" d="M 510.3144016403081 412.1573720909459 L 575.7986228827604 392.24922446579836 M 510.3144016403081 412.1573720909459 L 560.2974738472028 458.91429742137643 " fill="none" stroke="#ffffff"/><path id="angle_19.218166196907365" transform="translate(53.33205836446239 12.400919228445957)" d="M 510.3144016403081 412.1573720909459 L 575.7986228827604 392.24922446579836 M 510.3144016403081 412.1573720909459 L 560.2974738472028 458.91429742137643 " fill="none" stroke="#ffffff"/><path id="angle_19.218166196907365" transform="translate(66.66507295557798 15.501149035557448)" d="M 510.3144016403081 412.1573720909459 L 575.7986228827604 392.24922446579836 M 510.3144016403081 412.1573720909459 L 560.2974738472028 458.91429742137643 " fill="none" stroke="#ffffff"/><path id="angle_19.218166196907365" transform="translate(79.99808754669358 18.601378842668936)" d="M 510.3144016403081 412.1573720909459 L 575.7986228827604 392.24922446579836 M 510.3144016403081 412.1573720909459 L 560.2974738472028 458.91429742137643 " fill="none" stroke="#ffffff"/><path id="angle_19.218166196907365" transform="translate(93.3311021378092 21.70160864978043)" d="M 510.3144016403081 412.1573720909459 L 575.7986228827604 392.24922446579836 M 510.3144016403081 412.1573720909459 L 560.2974738472028 458.91429742137643 " fill="none" stroke="#ffffff"/></g><g><path id="angle_20.218166196907365" transform="translate(0 0)" d="M 510.3144016403081 412.1573720909459 L 560.2974738472028 458.91429742137643 M 510.3144016403081 412.1573720909459 L 494.8132526047506 478.82244504652385 " fill="none" stroke="#ffffff"/><path id="angle_20.218166196907365" transform="translate(3.9816295250294886 13.096844248490449)" d="M 510.3144016403081 412.1573720909459 L 560.2974738472028 458.91429742137643 M 510.3144016403081 412.1573720909459 L 494.8132526047506 478.82244504652385 " fill="none" stroke="#ffffff"/><path id="angle_20.218166196907365" transform="translate(7.963259050058977 26.193688496980897)" d="M 510.3144016403081 412.1573720909459 L 560.2974738472028 458.91429742137643 M 510.3144016403081 412.1573720909459 L 494.8132526047506 478.82244504652385 " fill="none" stroke="#ffffff"/><path id="angle_20.218166196907365" transform="translate(11.944888575088466 39.29053274547135)" d="M 510.3144016403081 412.1573720909459 L 560.2974738472028 458.91429742137643 M 510.3144016403081 412.1573720909459 L 494.8132526047506 478.82244504652385 " fill="none" stroke="#ffffff"/><path id="angle_20.218166196907365" transform="translate(15.926518100117955 52.387376993961794)" d="M 510.3144016403081 412.1573720909459 L 560.2974738472028 458.91429742137643 M 510.3144016403081 412.1573720909459 L 494.8132526047506 478.82244504652385 " fill="none" stroke="#ffffff"/><path id="angle_20.218166196907365" transform="translate(19.908147625147446 65.48422124245226)" d="M 510.3144016403081 412.1573720909459 L 560.2974738472028 458.91429742137643 M 510.3144016403081 412.1573720909459 L 494.8132526047506 478.82244504652385 " fill="none" stroke="#ffffff"/><path id="angle_20.218166196907365" transform="translate(23.889777150176933 78.5810654909427)" d="M 510.3144016403081 412.1573720909459 L 560.2974738472028 458.91429742137643 M 510.3144016403081 412.1573720909459 L 494.8132526047506 478.82244504652385 " fill="none" stroke="#ffffff"/><path id="angle_20.218166196907365" transform="translate(27.871406675206426 91.67790973943316)" d="M 510.3144016403081 412.1573720909459 L 560.2974738472028 458.91429742137643 M 510.3144016403081 412.1573720909459 L 494.8132526047506 478.82244504652385 " fill="none" stroke="#ffffff"/></g><g><path id="angle_21.218166196907365" transform="translate(0 0)" d="M 510.3144016403081 412.1573720909459 L 494.8132526047506 478.82244504652385 M 510.3144016403081 412.1573720909459 L 444.8301803978558 432.0655197160932 " fill="none" stroke="#ffffff"/><path id="angle_21.218166196907365" transform="translate(-9.35138506608609 9.996614441378943)" d="M 510.3144016403081 412.1573720909459 L 494.8132526047506 478.82244504652385 M 510.3144016403081 412.1573720909459 L 444.8301803978558 432.0655197160932 " fill="none" stroke="#ffffff"/><path id="angle_21.218166196907365" transform="translate(-18.70277013217218 19.993228882757887)" d="M 510.3144016403081 412.1573720909459 L 494.8132526047506 478.82244504652385 M 510.3144016403081 412.1573720909459 L 444.8301803978558 432.0655197160932 " fill="none" stroke="#ffffff"/><path id="angle_21.218166196907365" transform="translate(-28.05415519825827 29.989843324136828)" d="M 510.3144016403081 412.1573720909459 L 494.8132526047506 478.82244504652385 M 510.3144016403081 412.1573720909459 L 444.8301803978558 432.0655197160932 " fill="none" stroke="#ffffff"/><path id="angle_21.218166196907365" transform="translate(-37.40554026434436 39.98645776551577)" d="M 510.3144016403081 412.1573720909459 L 494.8132526047506 478.82244504652385 M 510.3144016403081 412.1573720909459 L 444.8301803978558 432.0655197160932 " fill="none" stroke="#ffffff"/><path id="angle_21.218166196907365" transform="translate(-46.75692533043045 49.98307220689472)" d="M 510.3144016403081 412.1573720909459 L 494.8132526047506 478.82244504652385 M 510.3144016403081 412.1573720909459 L 444.8301803978558 432.0655197160932 " fill="none" stroke="#ffffff"/><path id="angle_21.218166196907365" transform="translate(-56.10831039651654 59.979686648273656)" d="M 510.3144016403081 412.1573720909459 L 494.8132526047506 478.82244504652385 M 510.3144016403081 412.1573720909459 L 444.8301803978558 432.0655197160932 " fill="none" stroke="#ffffff"/><path id="angle_21.218166196907365" transform="translate(-65.45969546260262 69.9763010896526)" d="M 510.3144016403081 412.1573720909459 L 494.8132526047506 478.82244504652385 M 510.3144016403081 412.1573720909459 L 444.8301803978558 432.0655197160932 " fill="none" stroke="#ffffff"/></g><g><path id="angle_22.218166196907365" transform="translate(0 0)" d="M 510.3144016403081 412.1573720909459 L 444.8301803978558 432.0655197160932 M 510.3144016403081 412.1573720909459 L 460.3313294334135 365.40044676051536 " fill="none" stroke="#ffffff"/><path id="angle_22.218166196907365" transform="translate(-13.333014591115587 -3.1002298071115346)" d="M 510.3144016403081 412.1573720909459 L 444.8301803978558 432.0655197160932 M 510.3144016403081 412.1573720909459 L 460.3313294334135 365.40044676051536 " fill="none" stroke="#ffffff"/><path id="angle_22.218166196907365" transform="translate(-26.666029182231174 -6.200459614223069)" d="M 510.3144016403081 412.1573720909459 L 444.8301803978558 432.0655197160932 M 510.3144016403081 412.1573720909459 L 460.3313294334135 365.40044676051536 " fill="none" stroke="#ffffff"/><path id="angle_22.218166196907365" transform="translate(-39.99904377334676 -9.300689421334605)" d="M 510.3144016403081 412.1573720909459 L 444.8301803978558 432.0655197160932 M 510.3144016403081 412.1573720909459 L 460.3313294334135 365.40044676051536 " fill="none" stroke="#ffffff"/><path id="angle_22.218166196907365" transform="translate(-53.33205836446235 -12.400919228446138)" d="M 510.3144016403081 412.1573720909459 L 444.8301803978558 432.0655197160932 M 510.3144016403081 412.1573720909459 L 460.3313294334135 365.40044676051536 " fill="none" stroke="#ffffff"/><path id="angle_22.218166196907365" transform="translate(-66.66507295557794 -15.501149035557676)" d="M 510.3144016403081 412.1573720909459 L 444.8301803978558 432.0655197160932 M 510.3144016403081 412.1573720909459 L 460.3313294334135 365.40044676051536 " fill="none" stroke="#ffffff"/><path id="angle_22.218166196907365" transform="translate(-79.99808754669353 -18.60137884266921)" d="M 510.3144016403081 412.1573720909459 L 444.8301803978558 432.0655197160932 M 510.3144016403081 412.1573720909459 L 460.3313294334135 365.40044676051536 " fill="none" stroke="#ffffff"/><path id="angle_22.218166196907365" transform="translate(-93.3311021378091 -21.701608649780745)" d="M 510.3144016403081 412.1573720909459 L 444.8301803978558 432.0655197160932 M 510.3144016403081 412.1573720909459 L 460.3313294334135 365.40044676051536 " fill="none" stroke="#ffffff"/></g></g><text id="logo" x="40" y="40" fill="#ffffff" style="font-size: 20px; user-select: none;" transform="matrix(1 0 0 1 604 64)">Frohe Weihnachten!</text></svg>